<svg width="14" height="14" viewBox="0 0 14 14" fill="none" xmlns="http://www.w3.org/2000/svg">
<path d="M8.00007 0.823553L8.00007 11.1888L12.2931 7.65328C12.6831 7.3321 13.3161 7.3321 13.7071 7.65328C14.0981 7.97447 14.0971 8.49578 13.7071 8.81779L7.70707 13.7591C7.31707 14.0803 6.68406 14.0803 6.29306 13.7591L0.293001 8.81779C0.0979996 8.6572 0 8.44719 0 8.23554C0 8.02388 0.0979996 7.81388 0.293001 7.65328C0.683005 7.3321 1.31601 7.3321 1.70702 7.65328L6.00005 11.1888L6.00005 0.823553C6.00005 0.368128 6.44706 0 7.00006 0C7.55307 0 8.00007 0.368128 8.00007 0.823553Z" fill="#FFB800"/>
</svg>
