<svg width="14" height="14" viewBox="0 0 14 14" fill="none" xmlns="http://www.w3.org/2000/svg">
<path d="M0.823553 5.99993H11.1888L7.65328 1.70689C7.3321 1.31689 7.3321 0.683881 7.65328 0.292878C7.97447 -0.0981258 8.49578 -0.0971257 8.81779 0.292878L13.7591 6.29293C14.0803 6.68293 14.0803 7.31594 13.7591 7.70694L8.81779 13.707C8.6572 13.902 8.44719 14 8.23554 14C8.02388 14 7.81388 13.902 7.65328 13.707C7.3321 13.317 7.3321 12.684 7.65328 12.293L11.1888 7.99995H0.823553C0.368128 7.99995 0 7.55294 0 6.99994C0 6.44693 0.368128 5.99993 0.823553 5.99993Z" fill="#FFB800"/>
</svg>
