<svg width="24" height="22" viewBox="0 0 24 22" fill="none" xmlns="http://www.w3.org/2000/svg">
<path id="Union" d="M22.6665 5.89788L11.9206 0.0957275C11.6834 -0.0319092 11.3994 -0.0319092 11.1622 0.0957275L0.418366 5.89788C0.031202 6.10741 -0.113453 6.59137 0.0960839 6.9796C0.239675 7.2455 0.515157 7.3976 0.798085 7.3976C0.925722 7.3976 1.05655 7.3657 1.17674 7.30188L2.04361 6.83388L3.77627 19.0795C4.00389 20.3719 5.16751 21.2728 6.60342 21.2728H16.4761C17.9142 21.2728 19.0767 20.3708 19.3086 19.053L21.0381 6.83175L21.9081 7.30188C22.2953 7.50716 22.7803 7.3657 22.9898 6.97853C23.1983 6.59243 23.0537 6.10848 22.6665 5.89788ZM17.7333 18.803C17.6195 19.4476 16.9856 19.6773 16.4782 19.6773H6.60555C6.095 19.6773 5.46214 19.4476 5.35258 18.8285L3.54227 6.02551L11.5408 1.70501L19.5415 6.02338L17.7333 18.803Z" fill="#F2F2F2"/>
</svg>
