<svg width="24" height="24" viewBox="0 0 24 24" fill="none" xmlns="http://www.w3.org/2000/svg">
<g id="question_mark">
<mask id="mask0_6_743" style="mask-type:alpha" maskUnits="userSpaceOnUse" x="0" y="0" width="24" height="24">
<rect id="Bounding box" width="24" height="24" fill="#D9D9D9"/>
</mask>
<g mask="url(#mask0_6_743)">
<path id="question_mark_2" d="M10.65 15.875C10.65 14.5917 10.796 13.6333 11.088 13C11.3793 12.3667 11.9333 11.7167 12.75 11.05C13.3833 10.5333 13.8667 10.0457 14.2 9.587C14.5333 9.129 14.7 8.60833 14.7 8.025C14.7 7.30833 14.4627 6.72067 13.988 6.262C13.5127 5.804 12.8417 5.575 11.975 5.575C11.125 5.575 10.471 5.825 10.013 6.325C9.55435 6.825 9.22501 7.34167 9.02501 7.875L6.57501 6.825C6.95835 5.75833 7.61668 4.854 8.55001 4.112C9.48335 3.37067 10.625 3 11.975 3C13.7417 3 15.0917 3.47933 16.025 4.438C16.9583 5.396 17.425 6.575 17.425 7.975C17.425 8.79167 17.2377 9.53333 16.863 10.2C16.4877 10.8667 15.9083 11.55 15.125 12.25C14.325 12.9667 13.8377 13.525 13.663 13.925C13.4877 14.325 13.4 14.975 13.4 15.875H10.65ZM11.975 21.875C11.4583 21.875 11.0167 21.6917 10.65 21.325C10.2833 20.9583 10.1 20.5167 10.1 20C10.1 19.4833 10.2833 19.0417 10.65 18.675C11.0167 18.3083 11.4583 18.125 11.975 18.125C12.4917 18.125 12.9333 18.3083 13.3 18.675C13.6667 19.0417 13.85 19.4833 13.85 20C13.85 20.5167 13.6667 20.9583 13.3 21.325C12.9333 21.6917 12.4917 21.875 11.975 21.875Z" fill="#F2F2F2"/>
</g>
</g>
</svg>
